#!OML:ASF F:\VICON\USERDATA\INSTALL\rory3\rory3.ASF
:FULLY-SPECIFIED
:DEGREES
332
root 1.01784 15.7053 4.66983 0.650465 -0.422364 1.65066
lowerback 19.1067 1.45278 0.877037
upperback 1.3671 2.34661 2.49874
thorax -9.31102 1.13884 1.59381
lowerneck -14.2496 -5.23752 -10.5175
upperneck 21.2554 -6.84168 8.81199
head 9.75439 -3.08277 3.95697
rclavicle -1.11319e-014 -6.36111e-015
rhumerus -29.6106 -6.86379 -77.628
rradius 44.3504
rwrist 20.0149
rhand -20.361 12.6711
rfingers 7.12502
rthumb 5.99125 -17.2242
lclavicle -1.11319e-014 -6.36111e-015
lhumerus -37.841 13.4147 86.058
lradius 48.1059
lwrist 9.86623
lhand -24.3555 21.5662
lfingers 7.12502
lthumb 2.13398 51.5353
rfemur -37.2114 -5.28157 19.4591
rtibia 66.8379
rfoot -21.9729 -7.90784
rtoes -0.999707
lfemur -36.5632 4.32656 -22.7798
ltibia 63.9772
lfoot -23.7632 2.46286
ltoes -4.41791
333
root 1.02097 15.8215 4.73603 0.511403 -0.586987 1.57052
lowerback 19.0083 1.41152 0.923207
upperback 1.26289 2.30032 2.46972
thorax -9.36713 1.11441 1.54961
lowerneck -14.2893 -5.21996 -10.546
upperneck 21.5007 -6.79081 8.67881
head 9.8393 -3.07516 3.92496
rclavicle 1.64991e-014 0
rhumerus -29.8634 -6.57109 -77.7397
rradius 45.7955
rwrist 19.4948
rhand -21.0506 12.6784
rfingers 7.12502
rthumb 5.32548 -17.2347
lclavicle 1.64991e-014 0
lhumerus -37.8516 13.2852 86.5025
lradius 48.2365
lwrist 9.75357
lhand -23.8769 22.2445
lfingers 7.12502
lthumb 2.59624 52.2085
rfemur -35.9242 -5.33692 19.4864
rtibia 65.2014
rfoot -21.5154 -7.88563
rtoes -1.37322
lfemur -35.1989 4.19777 -22.6282
ltibia 62.3698
lfoot -23.1313 2.52652
ltoes -3.602
334
root 1.02112 15.9357 4.80671 0.394023 -0.77845 1.42588
lowerback 18.7664 1.38442 0.957721
upperback 1.17466 2.27104 2.48957
thorax -9.3291 1.10023 1.56319
lowerneck -14.2952 -5.26638 -10.6743
upperneck 21.7186 -6.83518 8.66027
head 9.92722 -3.1086 3.93743
rclavicle 2.88238e-014 1.43125e-014
rhumerus -30.3761 -6.41325 -77.7931
rradius 47.4439
rwrist 18.1388
rhand -21.5049 13.0193
rfingers 7.12502
rthumb 4.88679 -16.9044
lclavicle 2.88238e-014 1.43125e-014
lhumerus -37.6484 13.2859 86.8094
lradius 47.8484
lwrist 8.76023
lhand -23.5778 21.6113
lfingers 7.12502
lthumb 2.88514 51.5715
rfemur -34.5271 -5.36335 19.5659
rtibia 63.508
rfoot -21.1886 -7.61611
rtoes -0.897514
lfemur -33.8404 4.01459 -22.3993
ltibia 60.7165
lfoot -22.5216 2.66648
ltoes -2.78044
335
root 1.02294 16.0486 4.8831 0.384477 -0.923717 1.31613
lowerback 18.4717 1.30373 0.92199
upperback 0.989413 2.16117 2.53839
thorax -9.37023 1.05154 1.66992
lowerneck -14.2903 -5.276 -10.6917
upperneck 21.9945 -6.79903 8.39678
head 10.012 -3.12284 3.85546
rclavicle 2.38542e-015 -5.56597e-015
rhumerus -31.1694 -6.12333 -77.828
rradius 49.1559
rwrist 16.0458
rhand -21.8903 13.5181
rfingers 7.12502
rthumb 4.51471 -16.4138
lclavicle 2.38542e-015 -5.56597e-015
lhumerus -37.8109 13.1014 87.1183
lradius 47.8538
lwrist 7.79572
lhand -23.2709 22.7722
lfingers 7.12502
lthumb 3.18153 52.7282
rfemur -33.1784 -5.40818 19.5868
rtibia 61.7744
rfoot -20.985 -6.86406
rtoes -0.112843
lfemur -32.5478 3.73959 -22.2469
ltibia 59.0254
lfoot -22.1021 2.92415
ltoes -2.86828
336
root 1.02559 16.1679 4.94987 0.532406 -0.840824 1.38211
lowerback 18.0018 1.15569 0.79226
upperback 0.8726 1.9293 2.50976
thorax -9.23363 0.94727 1.77901
lowerneck -14.3358 -5.2038 -10.5491
upperneck 22.0307 -6.65058 8.07364
head 10.0004 -3.07705 3.73591
rclavicle -1.61016e-014 -2.46493e-014
rhumerus -31.5253 -6.00274 -77.9571
rradius 50.4656
rwrist 13.2797
rhand -22.364 14.3026
rfingers 7.12502
rthumb 4.05729 -15.6386
lclavicle -1.61016e-014 -2.46493e-014
lhumerus -37.883 12.9302 87.2555
lradius 47.6535
lwrist 6.73419
lhand -22.927 23.5873
lfingers 7.12502
lthumb 3.5136 53.5381
rfemur -32.0698 -5.65051 19.4143
rtibia 59.9713
rfoot -20.6646 -5.97061
rtoes 0.327658
lfemur -31.426 3.24119 -22.3263
ltibia 57.2891
lfoot -21.5306 3.13763
ltoes -2.83687
337
root 1.01981 16.287 5.0123 0.63129 -0.798642 1.41429
lowerback 17.6874 1.03705 0.647629
upperback 0.741607 1.73877 2.48995
thorax -9.20001 0.863023 1.89193
lowerneck -14.4665 -5.1538 -10.5746
upperneck 22.0431 -6.53922 7.98155
head 10.0156 -3.03547 3.72092
rclavicle 2.5842e-015 1.27222e-014
rhumerus -31.8303 -5.87148 -78.052
rradius 51.663
rwrist 10.2708
rhand -22.6234 14.9624
rfingers 7.12502
rthumb 3.80682 -14.9833
lclavicle 2.5842e-015 1.27222e-014
lhumerus -37.963 12.6918 87.2433
lradius 47.4197
lwrist 5.12198
lhand -22.7626 24.7151
lfingers 7.12502
lthumb 3.67234 54.6632
rfemur -30.9533 -5.72632 19.3474
rtibia 58.1051
rfoot -20.0778 -5.60512
rtoes -0.143958
lfemur -30.2414 2.81928 -22.3161
ltibia 55.5703
lfoot -21.0251 3.27989
ltoes -2.35321
338
root 1.00823 16.3978 5.0738 0.650917 -1.05919 1.1857
lowerback 17.5697 1.07364 0.678278
upperback 0.539036 1.80018 2.52322
thorax -9.35914 0.89274 1.89659
lowerneck -14.5727 -5.21903 -10.5933
upperneck 22.1475 -6.60439 7.90616
head 10.0785 -3.07368 3.68763
rclavicle -2.38542e-015 -3.18055e-015
rhumerus -32.4477 -5.87073 -78.0509
rradius 52.8252
rwrist 7.42522
rhand -22.7957 14.9812
rfingers 7.12502
rthumb 3.64038 -14.9675
lclavicle -2.38542e-015 -3.18055e-015
lhumerus -38.1458 12.192 87.1352
lradius 47.0453
lwrist 3.20938
lhand -22.7778 22.6614
lfingers 7.12502
lthumb 3.65765 52.6098
rfemur -29.752 -5.37619 19.611
rtibia 56.225
rfoot -19.4037 -5.66096
rtoes -0.643617
lfemur -28.9956 2.63748 -21.9564
ltibia 53.8663
lfoot -20.32 3.40132
ltoes -1.19906
339
root 0.995553 16.5041 5.131 0.724078 -1.35576 0.88369
lowerback 17.2382 1.11688 0.785153
upperback 0.501213 1.87417 2.54244
thorax -9.21424 0.924335 1.84152
lowerneck -14.9607 -5.27689 -10.4968
upperneck 22.249 -6.65947 7.83468
head 10.1886 -3.09049 3.63344
rclavicle -1.55052e-014 -1.98785e-014
rhumerus -32.8058 -5.92469 -78.1248
rradius 53.9982
rwrist 4.33447
rhand -22.6785 14.4747
rfingers 7.12502
rthumb 3.75352 -15.472
lclavicle -1.55052e-014 -1.98785e-014
lhumerus -38.1123 11.5897 87.0519
lradius 46.7805
lwrist 1.74192
lhand -23.0702 19.9345
lfingers 7.12502
lthumb 3.37531 49.8875
rfemur -28.5567 -5.02361 19.9613
rtibia 54.3533
rfoot -18.7742 -5.66254
rtoes -0.289468
lfemur -27.8537 2.43812 -21.5122
ltibia 52.1614
lfoot -19.4789 3.4918
ltoes 0.117497
340
root 0.984849 16.6133 5.19199 0.885945 -1.52053 0.81064
lowerback 16.681 1.06392 0.711093
upperback 0.521153 1.77026 2.47501
thorax -8.87603 0.876881 1.84197
lowerneck -15.3826 -5.24974 -10.4398
upperneck 22.2814 -6.61184 7.89871
head 10.2757 -3.04758 3.64826
rclavicle 1.98785e-015 -3.18055e-015
rhumerus -32.8632 -6.14257 -78.2761
rradius 54.8736
rwrist 1.36327
rhand -22.3525 14.0925
rfingers 7.12502
rthumb 4.06839 -15.8484
lclavicle 1.98785e-015 -3.18055e-015
lhumerus -37.8196 11.1456 86.8492
lradius 46.0887
lwrist 0.276435
lhand -23.2498 20.342
lfingers 7.12502
lthumb 3.20185 50.2977
rfemur -27.438 -4.91767 20.0662
rtibia 52.4777
rfoot -18.1463 -5.58537
rtoes -0.792733
lfemur -26.7402 2.10324 -21.3702
ltibia 50.4009
lfoot -18.8298 3.76793
ltoes 0.538718
341
root 0.97726 16.7225 5.25655 1.12189 -1.7557 0.819967
lowerback 16.1304 1.00361 0.533135
upperback 0.429124 1.64263 2.41178
thorax -8.66611 0.822501 1.91062
lowerneck -15.5323 -5.20604 -10.3584
upperneck 22.1036 -6.53893 7.86705
head 10.2281 -3.00754 3.6285
rclavicle -1.5704e-014 -2.62396e-014
rhumerus -32.7112 -6.31005 -78.3723
rradius 54.948
rwrist -1.05023
rhand -22.4469 14.4823
rfingers 7.12502
rthumb 3.97719 -15.4603
lclavicle -1.5704e-014 -2.62396e-014
lhumerus -37.4987 11.1847 86.4059
lradius 44.7248
lwrist -1.55887
lhand -23.7038 19.3583
lfingers 7.12502
lthumb 2.76341 49.3202
rfemur -26.436 -4.68683 20.0754
rtibia 50.6177
rfoot -17.6165 -5.53166
rtoes -1.95333
lfemur -25.6908 1.74867 -21.3331
ltibia 48.5969
lfoot -18.1783 4.0699
ltoes 0.673134
342
root 0.974165 16.8293 5.32055 1.27211 -2.2053 0.824894
lowerback 15.69 1.00951 0.321474
upperback 0.310375 1.6073 2.41487
thorax -8.55247 0.815197 2.04657
lowerneck -15.7006 -5.17862 -10.329
upperneck 22.0803 -6.44986 7.70581
head 10.2359 -2.97889 3.57526
rclavicle -1.88845e-014 9.54166e-015
rhumerus -32.7907 -6.19052 -78.3696
rradius 55.2462
rwrist -3.25802
rhand -22.5381 14.3267
rfingers 7.12502
rthumb 3.88911 -15.6175
lclavicle -1.88845e-014 9.54166e-015
lhumerus -37.7501 11.1588 86.0309
lradius 44.1519
lwrist -2.63595
lhand -24.2807 17.3176
lfingers 7.12502
lthumb 2.20629 47.2859
rfemur -25.3779 -4.23264 20.0388
rtibia 48.7908
rfoot -17.1158 -5.28369
rtoes -1.75999
lfemur -24.5689 1.50676 -21.319
ltibia 46.7713
lfoot -17.531 4.4973
ltoes 0.64496
